<svg width="247" height="88" viewBox="0 0 247 88" fill="none" xmlns="http://www.w3.org/2000/svg">
<path d="M31.0482 40.8419C31.0788 40.6173 31.1219 40.3929 31.1398 40.168C31.3065 37.3925 31.3346 34.6137 31.6644 31.8672C32.1983 27.4227 33.1086 23.0498 35.071 18.9522C35.9061 17.2192 37.0886 15.7198 38.7249 14.7445C41.474 13.0819 44.0587 13.5689 45.7983 16.7401C47.2238 19.3406 47.8118 22.184 48.2473 25.0739C48.8449 29.107 49.0003 33.1797 48.8409 37.2449C48.5945 43.3864 47.8831 49.4668 46.3302 55.427C45.2759 59.496 44.2459 63.6032 42.254 67.3495C41.5019 68.7715 40.6124 70.1401 39.5999 71.3806C37.3933 74.0827 34.3901 74.2368 31.7858 71.9215C29.6134 69.992 28.2482 67.5057 27.062 64.9109C25.6001 61.7212 24.5829 58.3793 23.7941 54.9677C23.771 54.8795 23.7227 54.7907 23.603 54.525C23.5311 54.8989 23.4763 55.0854 23.4592 55.2728C23.2926 58.0482 23.2393 60.8264 22.9347 63.5736C22.3608 68.6431 21.3106 73.6011 18.8582 78.1629C18.0009 79.7701 16.9453 81.235 15.2123 82.0327C14.0527 82.5686 12.8939 82.5411 11.7484 81.9506C10.366 81.2542 9.30707 80.2025 8.40405 78.9541C6.00097 75.5918 4.62915 71.7908 3.58809 67.8599C2.5125 63.7904 1.86726 59.6435 1.42474 55.4513C0.838522 49.8786 0.731841 44.2796 1.1416 38.6929C1.68433 31.2188 3.11783 23.9161 6.20509 17.0282C7.17653 14.8602 8.38522 12.7855 10.507 11.5338C13.8172 9.59653 16.5554 9.98699 19.428 12.6843C21.3391 14.4699 22.6346 16.7041 23.7899 19.0102C26.8462 25.1173 28.8227 31.5869 30.3038 38.2201C30.4972 39.1011 30.7034 39.9698 30.8971 40.8383C30.9475 40.8395 30.9979 40.8407 31.0482 40.8419Z" fill="#C45656"/>
<path d="M117.98 26.1644C120.502 27.689 122.917 27.8965 125.189 26.1475C127.397 24.4471 127.933 22.0309 127.747 19.2846C128.2 19.2954 128.616 19.3052 129.019 19.3148C130.014 19.3509 130.914 19.1093 131.722 18.515C133.737 17.0103 134.855 15.0086 135.028 12.5212C135.082 11.8214 135.339 11.6021 135.958 11.5417C140.708 11.0784 145.404 11.3024 150.064 12.4772C152.658 13.1271 155.226 13.789 157.576 15.1092C159.417 16.142 161.244 17.2369 162.411 19.055C163.747 21.14 164.74 23.3921 165.465 25.763C166.645 29.6847 167.395 33.6838 167.626 37.7583C167.811 41.1056 167.92 44.4635 167.816 47.8164C167.709 51.2568 166.899 54.593 166.013 57.9273C165.293 60.6521 163.295 62.0195 161.344 63.5007C156.557 67.1181 151.124 69.3055 145.147 69.965C141.179 70.3968 137.253 70.1409 133.673 68.0653C130.826 66.4203 129.169 63.9897 129.172 60.697C129.176 58.3809 130.133 56.2877 131.415 54.3399C133.258 51.5291 135.607 49.2185 138.313 47.2544C138.531 47.0968 138.749 46.9142 138.955 46.7438C138.931 46.6682 138.908 46.58 138.885 46.5043C138.583 46.4971 138.28 46.49 137.978 46.4828C134.613 46.5031 131.28 46.2113 128.025 45.2952C123.593 44.0508 119.516 42.1513 116.307 38.7824C115.384 37.8215 114.733 36.5916 113.965 35.4842C113.612 34.975 113.784 34.6285 114.258 34.2892C115.412 33.4777 116.578 32.654 117.227 31.3548C117.861 30.1053 118.182 28.7858 117.939 27.3653C117.883 27.0385 117.955 26.6896 117.968 26.139L117.98 26.1644ZM141.506 26.3341C138.873 26.2717 136.745 26.722 135.415 27.5544C134.046 28.4108 133.802 29.6696 134.935 30.7982C135.735 31.5934 136.663 32.304 137.646 32.8406C139.674 33.9529 141.906 34.4316 144.233 34.6119C146.397 34.7759 148.482 34.5625 150.503 33.8216C151.724 33.3748 152.334 32.0872 151.667 30.9822C151.134 30.0806 150.361 29.2109 149.479 28.6516C146.984 27.0525 144.123 26.4964 141.493 26.3338L141.506 26.3341ZM152.791 51.6167C150.9 51.622 149.516 52.0899 148.214 52.7602C146.466 53.6577 144.877 54.7594 144.002 56.6041C143.485 57.6685 143.808 58.3898 144.937 58.6294C146.128 58.8956 147.334 59.0619 148.507 58.4637C149.145 58.1408 149.844 57.907 150.445 57.5331C151.878 56.6531 153.275 55.6596 153.943 54.0479C154.638 52.3742 154.091 51.5349 152.804 51.6045L152.791 51.6167Z" fill="#C45656"/>
<path d="M232.644 77.6865C227.288 77.6471 222.321 76.1145 217.523 73.8598C213.01 71.7496 210.453 67.9831 208.552 63.6311C206.389 58.6594 205.113 53.4584 204.484 48.0975C204.169 45.4483 203.917 42.8006 203.816 40.1314C203.711 37.1242 203.644 34.0927 203.867 31.0932C204.349 24.5817 205.395 18.1838 208.272 12.2174C209.226 10.2493 210.39 8.4365 212.076 6.97407C213.543 5.69427 215.197 5.0574 217.174 5.1043C224.77 5.25939 231.506 7.68524 237.366 12.4942C239.752 14.4413 241.88 16.6452 242.918 19.6245C244.299 23.576 242.107 26.7292 237.785 27.2276C235.51 27.4867 233.358 26.8597 231.146 26.5944C228.117 26.2221 225.14 26.3518 222.335 27.7251C221.863 27.9518 221.451 28.3176 221.077 28.6843C220.483 29.2712 220.391 29.9702 220.751 30.7299C221.494 32.3376 222.869 33.3342 224.39 34.0589C226.185 34.9027 228.099 35.499 229.96 36.1942C230.185 36.2746 230.436 36.3056 230.622 36.4352C233.348 38.4279 235.44 41.0942 234.961 44.7888C234.592 47.597 232.09 50.0167 229.273 50.3129C228.123 50.4359 227.083 50.1859 226.021 49.7851C224.897 49.3578 223.712 49.3547 222.615 49.9046C221.493 50.4665 221.134 51.7601 221.536 53.4097C222.227 56.168 225.601 58.9773 228.209 59.0016C230.73 59.0238 233.061 60.1058 235.368 61.112C237.776 62.1582 240 63.513 241.91 65.3236C243.488 66.8259 244.797 68.5095 244.88 70.8402C244.976 73.1837 243.754 74.7448 241.849 75.8765C239.663 77.1768 237.245 77.6203 234.735 77.7235C234.041 77.7571 233.349 77.6907 232.657 77.6742L232.644 77.6865Z" fill="#C45656"/>
<path d="M85.631 20.1637C86.0675 23.0161 87.7097 24.9831 90.2849 25.8705C92.9105 26.7591 95.3395 25.8401 97.5508 24.0021C97.6038 24.9548 97.5719 25.7679 97.6918 26.5595C97.8014 27.2507 97.9606 27.9806 98.2993 28.5771C100.222 32.0156 103.079 34.3119 106.949 35.3302C107.512 35.4812 107.569 35.733 107.041 36.2088C105.651 37.4403 104.236 38.6337 102.834 39.8524C102.641 40.0106 102.448 40.1688 102.268 40.3273C102.291 40.4155 102.302 40.5034 102.325 40.5916C102.866 40.6044 103.408 40.6298 103.937 40.6298C108.299 40.5705 112.515 41.3591 116.573 42.9577C119.682 44.1833 122.516 45.853 124.828 48.2741C127.091 50.644 128.384 53.4917 128.407 56.785C128.424 59.8027 127.363 62.5319 125.653 65.0204C123.512 68.1497 120.611 70.3721 117.257 72.0578C113.239 74.0784 108.965 75.179 104.494 75.6113C99.7188 76.074 95.0656 75.6507 90.418 74.4637C87.8873 73.8278 85.4872 72.9946 83.184 71.8007C79.8345 70.0812 77.8985 67.2182 76.5922 63.8444C74.9413 59.586 74.1389 55.16 73.6411 50.641C73.2383 46.9005 73.1129 43.154 73.3279 39.4031C73.524 35.9147 74.2219 32.5258 75.1844 29.1432C75.8022 27.0044 77.0951 25.6328 78.7235 24.457C80.6726 23.0509 82.7686 21.8236 84.8157 20.5325C85.0331 20.3999 85.2868 20.3308 85.643 20.189L85.631 20.1637ZM100.069 60.7829C102.011 60.7163 104.043 60.6142 105.822 59.4795C107.101 58.671 107.333 57.387 106.262 56.3349C105.424 55.5138 104.459 54.7397 103.426 54.2019C100.475 52.6671 97.2859 52.1783 93.9891 52.4882C92.8903 52.5873 91.799 52.8995 90.7327 53.2248C89.3865 53.6561 88.7747 55.0063 89.5152 56.2007C90.0493 57.0647 90.8364 57.8847 91.6931 58.4308C94.2013 60.0177 97.0364 60.5733 100.057 60.7576L100.069 60.7829ZM88.7851 35.4378C91.4218 35.325 93.6777 34.2642 95.5844 32.5191C96.2542 31.909 96.7899 31.1079 97.2372 30.3172C97.6584 29.5635 97.4477 28.8824 96.7341 28.6777C95.8329 28.4184 94.8311 28.1443 93.9575 28.3114C91.565 28.7554 89.5314 30.0093 87.9874 31.8757C87.4684 32.5019 87.2074 33.4097 87.0115 34.2313C86.8431 34.9535 87.3632 35.3415 88.0671 35.4207C88.3058 35.4514 88.5458 35.4321 88.7851 35.4378Z" fill="#C45656"/>
<path d="M172.015 45.5872C172.348 36.8687 172.986 29.6097 174.793 22.5037C175.363 20.2761 176.058 18.0515 177.04 15.9839C177.73 14.5229 178.871 13.1728 180.069 12.0619C181.539 10.682 183.417 10.1381 185.399 11.0365C187.569 12.0269 188.752 13.6951 188.744 16.1613C188.754 21.0319 187.71 25.7271 186.303 30.3387C185.715 32.2653 184.94 34.125 184.265 36.0245C183.063 39.4265 183.238 42.6483 185.755 45.4624C186.197 45.9611 186.805 46.3511 187.416 46.6411C189.747 47.7355 192.222 48.583 194.448 49.8627C197.855 51.809 200.808 54.3079 202.536 57.9671C205.2 63.5892 202.524 69.623 196.496 71.3705C191.001 72.9555 185.848 71.8317 180.985 69.0871C178.038 67.4272 175.621 65.1789 174.016 62.1611C172.882 60.0183 172.369 57.74 172.326 55.3101C172.263 51.6152 172.098 47.9179 172.026 45.6251L172.015 45.5872Z" fill="#C45656"/>
<path d="M57.0153 48.6191C57.2586 44.2054 57.6648 39.833 58.9749 35.6073C59.3977 34.2526 59.8961 32.8997 60.531 31.6378C61.4443 29.7939 63.6816 29.5215 65.173 30.9341C66.4917 32.1923 67.1336 33.8226 67.6739 35.488C68.8723 39.1598 69.4755 42.9551 69.7122 46.7918C69.8935 49.7759 70.1126 52.7609 69.9916 55.7377C69.8247 60.1158 69.5436 64.5287 68.0455 68.7124C67.5462 70.1028 66.7584 71.4363 65.8728 72.6422C64.9997 73.8485 63.7524 73.8314 62.5901 72.8899C61.4523 71.974 60.8012 70.7316 60.2523 69.429C58.6295 65.5844 57.8562 61.5221 57.4878 57.3943C57.2294 54.4711 57.1603 51.5397 57.003 48.6063L57.0153 48.6191Z" fill="#C45656"/>
</svg>
