<svg width="8" height="9" viewBox="0 0 8 9" fill="none" xmlns="http://www.w3.org/2000/svg">
<path d="M1.49286 4.03694C2.14324 3.23626 2.93564 2.76402 3.86886 2.59214C3.95729 2.57625 4.04176 2.56668 4.14121 2.55541C4.18584 2.55035 4.23349 2.54495 4.28587 2.53848L4.63685 2.49515V2.1415V0.911668C4.98212 1.22945 5.32649 1.54651 5.67046 1.86319C6.25062 2.39734 6.82964 2.93043 7.40985 3.46418C6.48672 4.3171 5.5667 5.16703 4.64064 6.02199V4.77697V4.29815L4.16947 4.38335C4.10789 4.39449 4.03925 4.40532 3.96657 4.4168C3.78837 4.44493 3.58582 4.47691 3.40319 4.52656C2.09197 4.88128 1.0875 5.69753 0.421995 6.95112C0.424917 6.88792 0.428269 6.82468 0.43211 6.76138L0.432118 6.76124C0.495173 5.71605 0.864613 4.80899 1.49264 4.03721L1.49286 4.03694Z" stroke="#E7BBBB" stroke-width="0.8"/>
</svg>
