<svg width="8" height="9" viewBox="0 0 8 9" fill="none" xmlns="http://www.w3.org/2000/svg">
<path d="M0.00126322 8.99429C0.00884257 8.24191 -0.0126322 7.48667 0.0328438 6.73715C0.101058 5.60644 0.502763 4.61992 1.18238 3.78474C1.88978 2.91386 2.7652 2.38848 3.79725 2.1986C3.94 2.17291 4.08653 2.16006 4.23685 2.1415V0C5.50008 1.16212 6.74562 2.30996 8 3.46352C6.74688 4.62135 5.50134 5.77205 4.24064 6.9356V4.77697C3.988 4.82265 3.7442 4.84835 3.50797 4.91259C2.20938 5.2638 1.23796 6.1047 0.624033 7.44527C0.411811 7.90784 0.252645 8.40181 0.0694773 8.8815C0.0543187 8.92148 0.03916 8.96003 0.0240013 9C0.0164219 8.99857 0.00757935 8.99572 0 8.99429H0.00126322Z" fill="#C45656"/>
</svg>
