<svg width="85" height="85" viewBox="0 0 85 85" fill="none" xmlns="http://www.w3.org/2000/svg">
<path d="M22.2182 44.3745C23.6805 45.3144 24.9295 46.5336 26.3867 47.4937C37.7092 54.9818 52.7382 53.5339 62.6339 44.3796C73.1694 49.8864 81.1256 60.3108 83.8369 71.9188C84.3447 74.1032 84.8423 76.9481 84.954 79.1731C85.0911 81.8707 85.152 84.6495 81.8009 85H3.18825C2.13724 85 0.994831 84.3294 0.471863 83.4302C-0.442061 81.8605 0.202763 77.4357 0.471863 75.5307C2.35556 62.3784 10.6164 50.7145 22.2131 44.3796L22.2182 44.3745Z" fill="#C45656"/>
<path d="M40.4102 0.0863554C60.5318 -1.62055 73.1795 21.7885 59.9479 37.4047C48.8742 50.4757 28.2246 47.7528 21.4971 31.9588C15.4245 17.7092 24.9801 1.39702 40.4102 0.0863554Z" fill="#C45656"/>
</svg>
