<svg width="85" height="89" viewBox="0 0 85 89" fill="none" xmlns="http://www.w3.org/2000/svg">
<path d="M55.6097 9.66892C55.7909 9.86981 59.8939 11.504 60.7097 11.9438C66.9397 15.3208 71.0729 20.4787 72.9643 26.7658C75.8044 36.1857 72.4627 46.5665 78.0764 55.362C80.9044 59.7977 86.9954 62.887 84.3487 68.6801C83.1462 71.3024 80.4512 72.8281 77.3513 73.1213H7.65484C4.48243 72.8172 1.7753 71.2427 0.59093 68.5389C-1.9047 62.8599 4.13799 59.7326 6.92972 55.362C12.3258 46.9086 9.46161 37.2715 11.643 28.1992C13.5283 20.3755 18.2296 14.9028 25.9823 11.0751C26.5745 10.7819 29.2333 9.84809 29.3904 9.66892C29.5717 9.46804 30.0732 7.76866 30.3572 7.25831C35.7352 -2.41129 49.2467 -2.42758 54.6368 7.25831C54.9208 7.76866 55.4223 9.46261 55.6036 9.66892H55.6097Z" fill="#C45656"/>
<path d="M27.3968 79.517L57.2235 79.4681C59.3626 79.6961 57.2356 82.009 56.5286 82.8397C50.643 89.7675 39.3855 91.0271 31.6811 85.7227C30.2066 84.7074 27.85 82.4434 27.0524 80.9395C26.72 80.3151 26.5871 79.8645 27.3908 79.5224L27.3968 79.517Z" fill="#C45656"/>
</svg>
