<svg width="85" height="85" viewBox="0 0 85 85" fill="none" xmlns="http://www.w3.org/2000/svg">
<path d="M40.4161 0.0720031C56.8336 -1.02199 70.9873 10.4985 71.9252 24.531C72.0169 25.9183 71.5656 29.0475 72.2426 30.0987C73.2793 31.7122 75.945 31.0399 77.7151 31.1988C81.6925 31.5594 84.8237 34.5358 85 37.9828L84.9859 78.5277C84.4711 82.1642 81.3681 84.7433 77.1368 85L7.46827 84.9878C3.42736 84.5905 0.324401 81.8953 0 78.3566V37.9828C0.176305 34.5297 3.30748 31.5533 7.28491 31.1988C9.05501 31.0399 11.7207 31.7122 12.7574 30.0987C13.4344 29.0475 12.976 25.9183 13.0748 24.531C13.914 11.9715 25.8674 1.03765 40.4161 0.0720031ZM58.1594 30.5877C59.7179 29.237 58.8858 24.2804 58.3286 22.5019C53.1876 5.99423 27.5882 8.95228 26.1566 25.6005C26.0155 27.2751 25.5924 30.6488 27.976 31.101C37.6939 31.1988 47.4683 31.2844 57.165 31.0583C57.4824 30.9238 57.9126 30.8016 58.1523 30.5877H58.1594ZM41.4316 45.3902C35.543 45.983 32.5247 51.6791 35.5148 56.0795C36.5726 57.6319 38.7377 58.5792 39.1326 60.3821C39.6333 62.6679 38.9633 65.7237 39.2172 68.1012C39.5769 71.4504 44.6685 71.7254 45.6276 68.859C46.5233 66.1699 44.725 61.4639 46.5303 59.0192C47.1086 58.2369 48.1735 57.6563 48.8223 56.9351C53.4203 51.8319 48.8082 44.6506 41.4245 45.3902H41.4316Z" fill="#C45656"/>
</svg>
