<svg width="35" height="34" viewBox="0 0 35 34" fill="none" xmlns="http://www.w3.org/2000/svg">
<path d="M25.4462 25.9049L26.4306 24.955C30.9849 25.0995 31.0549 24.9444 31.2551 24.4896L32.5063 21.5306L32.5993 21.2501L32.4976 21.0046C32.444 20.875 32.2788 20.4882 29.4351 17.8543V16.4688C32.7163 13.3982 32.6463 13.2409 32.4593 12.7915L31.2135 9.80162C31.0265 9.35324 30.9554 9.17793 26.4338 9.29799L25.4495 8.30987C25.5524 6.85437 25.5007 5.39245 25.2953 3.94724L25.1684 3.66781L21.9156 2.28655C21.4365 2.07405 21.2681 1.99755 18.1968 5.24668L16.8165 5.22649C13.6545 1.94762 13.5046 2.00712 13.031 2.19305L10.0068 3.38093C9.53322 3.56687 9.36588 3.63274 9.54963 8.09524L8.57291 9.04087C4.02072 8.89637 3.95072 9.05362 3.75275 9.50624L2.49932 12.4664L2.40088 12.7501L2.50369 12.9966C2.55729 13.1241 2.71588 13.5066 5.56619 16.1437V17.5249C2.28494 20.5956 2.35604 20.7528 2.54416 21.2033L3.78885 24.1964C3.97916 24.6543 4.04697 24.8169 8.56744 24.7021L9.55182 25.6956C9.44946 27.1488 9.49966 28.6084 9.70166 30.0518L9.82854 30.3334L13.1021 31.7231C13.5779 31.9165 13.7431 31.9856 16.8056 28.7481L18.1859 28.7651C21.3523 32.0482 21.5142 31.9845 21.9768 31.8028L24.9945 30.6181C25.4713 30.4343 25.6376 30.3695 25.4462 25.9049ZM12.4765 18.9731C12.0948 18.0042 12.0163 16.9473 12.2506 15.9351C12.485 14.923 13.0218 14.0006 13.7938 13.2837C14.5658 12.5669 15.5386 12.0874 16.59 11.9056C17.6415 11.7238 18.7248 11.8477 19.704 12.2617C20.6832 12.6758 21.5148 13.3615 22.0943 14.233C22.6738 15.1044 22.9755 16.1227 22.9614 17.1601C22.9474 18.1974 22.6183 19.2077 22.0155 20.064C21.4126 20.9204 20.5628 21.5847 19.5728 21.9736C18.2219 22.4868 16.7168 22.4592 15.3868 21.8968C14.0569 21.3345 13.0104 20.2832 12.4765 18.9731Z" fill="white" fill-opacity="0.5"/>
</svg>
