<svg width="27" height="29" viewBox="0 0 27 29" fill="none" xmlns="http://www.w3.org/2000/svg">
<path d="M13.4941 4.6243e-06C20.912 -0.00634528 27 6.5277 27 14.4968C27 22.4786 20.9356 29 13.5059 29C6.07618 29.0063 0 22.4914 0 14.5095C0 6.5277 6.05845 0.00635452 13.4941 4.6243e-06ZM12.3711 17.6908C12.3711 18.2687 12.3533 18.8465 12.3829 19.418C12.3947 19.6402 12.4775 19.8815 12.6016 20.0657C12.8912 20.5038 13.3818 20.6562 13.8428 20.5038C14.3098 20.3451 14.623 19.9006 14.6289 19.3545C14.6349 18.2496 14.6408 17.1447 14.6289 16.0399C14.6289 15.7668 14.7058 15.7097 14.9422 15.716C15.947 15.7287 16.9459 15.716 17.9507 15.7224C18.3054 15.7224 18.6127 15.6208 18.8433 15.3223C19.1506 14.935 19.2452 14.5032 19.0501 14.0333C18.8551 13.5634 18.5182 13.2903 18.0217 13.2903C16.9932 13.2903 15.9648 13.2776 14.9363 13.2903C14.6821 13.2903 14.6289 13.2078 14.6349 12.9538C14.6467 11.8743 14.6349 10.8012 14.6408 9.7217C14.6408 9.34071 14.5462 9.01051 14.2684 8.76287C13.9078 8.43267 13.5059 8.32472 13.0685 8.54062C12.6311 8.75017 12.377 9.11211 12.377 9.6455C12.377 10.7504 12.3651 11.8553 12.377 12.9601C12.377 13.2332 12.3001 13.2903 12.0637 13.284C11.0057 13.2713 9.95359 13.2713 8.89558 13.2903C8.25131 13.303 7.75482 14.0142 7.87894 14.6937C7.99124 15.3033 8.4109 15.697 8.98424 15.7033C10.0127 15.716 11.0412 15.716 12.0696 15.7033C12.3238 15.7033 12.3829 15.7859 12.3711 16.0399C12.3533 16.5859 12.3711 17.1384 12.3711 17.6845V17.6908Z" fill="white" fill-opacity="0.5"/>
</svg>
