<svg width="40" height="40" viewBox="0 0 40 40" fill="none" xmlns="http://www.w3.org/2000/svg">
<path d="M0.000456746 39.9746C0.0383535 36.6307 -0.0690206 33.2741 0.15836 29.9429C0.49943 24.9175 2.50796 20.533 5.90603 16.8211C9.44306 12.9505 13.8201 10.6155 18.9804 9.77157C19.6941 9.65736 20.4268 9.60025 21.1784 9.51777V0C27.4945 5.16497 33.7222 10.2665 39.9941 15.3934C33.7285 20.5393 27.5008 25.6536 21.1974 30.8249V21.231C19.9341 21.434 18.7151 21.5482 17.534 21.8338C11.041 23.3947 6.18394 27.132 3.1143 33.0901C2.0532 35.1459 1.25736 37.3414 0.341527 39.4733C0.265734 39.651 0.18994 39.8223 0.114147 40C0.0762502 39.9937 0.0320374 39.981 -0.00585938 39.9746H0.000456746Z" fill="white"/>
</svg>
