<svg width="7" height="9" viewBox="0 0 7 9" fill="none" xmlns="http://www.w3.org/2000/svg">
<path d="M6.96156 8.72181C6.88146 8.96426 6.64119 9.06372 6.40412 8.95804C6.32723 8.92385 6.25675 8.87411 6.19268 8.82438C5.41419 8.18408 4.6389 7.54378 3.86362 6.90036M6.96156 8.72181C6.99039 8.63167 7 8.53221 7 8.43585V4.63132V4.62822V0.808151C7 0.326369 6.66041 0 6.16384 0C5.57544 0 4.98703 0.000690727 4.39863 0.00138145C3.22182 0.00276291 2.045 0.00414436 0.868192 0M6.96156 8.72181L6.56746 8.59162L6.56711 8.59151L6.48679 8.56497C6.4871 8.56405 6.49062 8.55446 6.50193 8.54186C6.5133 8.52919 6.52903 8.5175 6.54777 8.50962C6.57935 8.49633 6.6015 8.50025 6.60715 8.50147C6.60731 8.50151 6.60746 8.50154 6.6076 8.50157C6.60823 8.50171 6.60856 8.5018 6.60857 8.50177C6.60857 8.50175 6.60829 8.50162 6.6077 8.50136L6.60728 8.50117C6.58774 8.49249 6.55773 8.47424 6.50761 8.43585C6.50658 8.43506 6.50554 8.43426 6.5045 8.43345C6.503 8.43222 6.5015 8.43099 6.5 8.42976M6.96156 8.72181L6.56585 8.59524L6.5655 8.59513L6.48533 8.56948C6.49215 8.54816 6.49888 8.50976 6.49988 8.45089L6.19268 8.82438L6.49925 8.4294C6.4995 8.42959 6.49975 8.42979 6.5 8.42998V8.42976M0.868192 0C0.416476 0 0 0.34191 0 0.839233M0.868192 0L0.866431 0.499997C0.866779 0.499998 0.867127 0.499999 0.867475 0.500001M0.868192 0V0.5C0.867953 0.5 0.867714 0.5 0.867475 0.500001M0 0.839233C0.00549337 2.28361 0.00680026 3.72799 0.00810821 5.17352C0.00908859 6.25704 0.0100696 7.34121 0.0128146 8.42653V8.55707M0 0.839233H0.5C0.5 0.838988 0.5 0.838743 0.500001 0.838497M0 0.839233L0.499996 0.837332C0.499998 0.83772 0.499999 0.838109 0.500001 0.838497M0.0128146 8.55707C0.0384439 8.9425 0.397254 9.11967 0.733638 8.91142M0.0128146 8.55707L0.492725 8.52516L0.484608 8.51215C0.482367 8.5108 0.48001 8.50951 0.477536 8.50829C0.460467 8.49989 0.446787 8.49937 0.441939 8.49977C0.441214 8.49983 0.440856 8.49989 0.44086 8.49989C0.440879 8.49991 0.450793 8.49834 0.469698 8.48675C0.478734 8.48106 0.490068 8.4727 0.512815 8.45442M0.0128146 8.55707H0.512629L0.733638 8.91142M0.733638 8.91142C0.77849 8.88344 0.820137 8.84925 0.861785 8.81506C1.63707 8.17476 2.41236 7.53756 3.18764 6.90036C3.24531 6.85374 3.30938 6.81022 3.37986 6.78847M0.733638 8.91142L0.512815 8.55473V8.55452V8.55427V8.55401V8.55376V8.5535V8.55325V8.55299V8.55274V8.55248V8.55223V8.55197V8.55172V8.55146V8.55121V8.55095V8.5507V8.55044V8.55019V8.54993V8.54968V8.54942V8.54917V8.54891V8.54866V8.5484V8.54815V8.54789V8.54764V8.54738V8.54713V8.54687V8.54662V8.54636V8.54611V8.54585V8.5456V8.54534V8.54509V8.54483V8.54458V8.54432V8.54407V8.54381V8.54356V8.5433V8.54305V8.54279V8.54254V8.54228V8.54203V8.54177V8.54152V8.54126V8.54101V8.54075V8.5405V8.54024V8.53999V8.53973V8.53948V8.53922V8.53913C0.514331 8.54167 0.514867 8.54309 0.514857 8.5431C0.514843 8.54312 0.513772 8.54042 0.512815 8.53423V8.53412V8.53387V8.53361V8.53336V8.5331V8.53285V8.53259V8.53234V8.53208V8.53183V8.53157V8.53132V8.53106V8.53081V8.53055V8.5303V8.53004V8.52979V8.52953V8.52928V8.52903V8.52877V8.52851V8.52826V8.528V8.52775V8.5275V8.52724V8.52699V8.52673V8.52647V8.52622V8.52596V8.52571V8.52546V8.5252V8.52495V8.52469V8.52444V8.52418V8.52392V8.52367V8.52342V8.52316V8.52291V8.52265V8.5224V8.52214V8.52189V8.52163V8.52138V8.52112V8.52087V8.52061V8.52036V8.5201V8.51985V8.51959V8.51934V8.51908V8.51883V8.51857V8.51832V8.51806V8.51781V8.51755V8.5173V8.51704V8.51679V8.51653V8.51628V8.51602V8.51577V8.51551V8.51526V8.515V8.51475V8.51449V8.51424V8.51398V8.51373V8.51347V8.51322V8.51296V8.51271V8.51245V8.5122V8.51194V8.51169V8.51143V8.51118V8.51092V8.51067V8.51041V8.51016V8.5099V8.50965V8.50939V8.50914V8.50888V8.50863V8.50837V8.50812V8.50786V8.50761V8.50735V8.5071V8.50684V8.50659V8.50633V8.50608V8.50582V8.50557V8.50531V8.50506V8.5048V8.50455V8.50429V8.50404V8.50378V8.50353V8.50327V8.50302V8.50276V8.50251V8.50225V8.502V8.50174V8.50149V8.50123V8.50098V8.50072V8.50047V8.50021V8.49996V8.4997V8.49945V8.49919V8.49894V8.49868V8.49843V8.49817V8.49792V8.49766V8.49741V8.49715V8.4969V8.49664V8.49639V8.49613V8.49588V8.49562V8.49537V8.49511V8.49486V8.4946V8.49435V8.49409V8.49384V8.49358V8.49333V8.49307V8.49282V8.49256V8.49231V8.49205V8.4918V8.49154V8.49129V8.49103V8.49078V8.49052V8.49027V8.49001V8.48976V8.4895V8.48925V8.48899V8.48874V8.48848V8.48823V8.48797V8.48772V8.48746V8.48721V8.48695V8.4867V8.48644V8.48619V8.48593V8.48568V8.48542V8.48517V8.48491V8.48466V8.4844V8.48415V8.48389V8.48364V8.48338V8.48313V8.48287V8.48262V8.48236V8.48211V8.48185V8.4816V8.48134V8.48109V8.48083V8.48058V8.48032V8.48007V8.47981V8.47956V8.4793V8.47905V8.4788V8.47854V8.47828V8.47803V8.47777V8.47752V8.47726V8.47701V8.47676V8.4765V8.47624V8.47599V8.47573V8.47548V8.47522V8.47497V8.47472V8.47446V8.47421V8.47395V8.47369V8.47344V8.47319V8.47293V8.47268V8.47242V8.47217V8.47191V8.47165V8.4714V8.47115V8.47089V8.47064V8.47038V8.47013V8.46987V8.46962V8.46936V8.46911V8.46885V8.4686V8.46834V8.46809V8.46783V8.46758V8.46732V8.46707V8.46681V8.46656V8.4663V8.46605V8.46579V8.46554V8.46528V8.46503V8.46477V8.46452V8.46426V8.46401V8.46375V8.4635V8.46324V8.46299V8.46273V8.46248V8.46222V8.46197V8.46171V8.46146V8.4612V8.46095V8.46069V8.46044V8.46018V8.45993V8.45967V8.45942V8.45916V8.45891V8.45865V8.4584V8.45814V8.45789V8.45763V8.45738V8.45712V8.45687V8.45661V8.45636V8.4561V8.45585V8.45559V8.45534V8.45508V8.45483V8.45457V8.45442M3.37986 6.78847C3.55927 6.73252 3.71945 6.77914 3.86362 6.90036M3.37986 6.78847L3.23238 6.31071C3.23215 6.31078 3.23192 6.31085 3.23169 6.31092M3.37986 6.78847L3.231 6.31114C3.23123 6.31107 3.23146 6.311 3.23169 6.31092M3.86362 6.90036L4.1854 6.51767C4.18494 6.51728 4.18447 6.51689 4.184 6.5165M3.86362 6.90036L4.18293 6.5156C4.18329 6.5159 4.18365 6.5162 4.184 6.5165M4.184 6.5165C4.95491 7.15627 5.72585 7.793 6.5 8.42976M4.184 6.5165C3.9356 6.30825 3.6028 6.19546 3.23169 6.31092M6.5 8.42976V8.42842V8.42099V8.41356V8.40613V8.3987V8.39126V8.38383V8.3764V8.36897V8.36154V8.35411V8.34668V8.33925V8.33182V8.32439V8.31696V8.30953V8.3021V8.29467V8.28724V8.2798V8.27237V8.26494V8.25751V8.25008V8.24265V8.23522V8.22779V8.22036V8.21293V8.2055V8.19807V8.19064V8.1832V8.17577V8.16834V8.16091V8.15348V8.14605V8.13862V8.13119V8.12376V8.11633V8.1089V8.10147V8.09404V8.08661V8.07917V8.07174V8.06431V8.05688V8.04945V8.04202V8.03459V8.02716V8.01973V8.0123V8.00487V7.99744V7.99001V7.98258V7.97514V7.96771V7.96028V7.95285V7.94542V7.93799V7.93056V7.92313V7.9157V7.90827V7.90084V7.89341V7.88598V7.87855V7.87112V7.86368V7.85625V7.84882V7.84139V7.83396V7.82653V7.8191V7.81167V7.80424V7.79681V7.78938V7.78195V7.77452V7.76709V7.75965V7.75222V7.74479V7.73736V7.72993V7.7225V7.71507V7.70764V7.70021V7.69278V7.68535V7.67792V7.67049V7.66305V7.65562V7.64819V7.64076V7.63333V7.6259V7.61847V7.61104V7.60361V7.59618V7.58875V7.58132V7.57389V7.56646V7.55903V7.55159V7.54416V7.53673V7.5293V7.52187V7.51444V7.50701V7.49958V7.49215V7.48472V7.47729V7.46986V7.46243V7.455V7.44756V7.44013V7.4327V7.42527V7.41784V7.41041V7.40298V7.39555V7.38812V7.38069V7.37326V7.36583V7.3584V7.35097V7.34353V7.3361V7.32867V7.32124V7.31381V7.30638V7.29895V7.29152V7.28409V7.27666V7.26923V7.2618V7.25437V7.24694V7.2395V7.23207V7.22464V7.21721V7.20978V7.20235V7.19492V7.18749V7.18006V7.17263V7.1652V7.15777V7.15034V7.14291V7.13547V7.12804V7.12061V7.11318V7.10575V7.09832V7.09089V7.08346V7.07603V7.0686V7.06117V7.05374V7.04631V7.03888V7.03144V7.02401V7.01658V7.00915V7.00172V6.99429V6.98686V6.97943V6.972V6.96457V6.95714V6.94971V6.94228V6.93485V6.92741V6.91998V6.91255V6.90512V6.89769V6.89026V6.88283V6.8754V6.86797V6.86054V6.85311V6.84568V6.83825V6.83082V6.82338V6.81595V6.80852V6.80109V6.79366V6.78623V6.7788V6.77137V6.76394V6.75651V6.74908V6.74165V6.73422V6.72679V6.71935V6.71192V6.70449V6.69706V6.68963V6.6822V6.67477V6.66734V6.65991V6.65248V6.64505V6.63762V6.63019V6.62276V6.61532V6.60789V6.60046V6.59303V6.5856V6.57817V6.57074V6.56331V6.55588V6.54845V6.54102V6.53359V6.52616V6.51873V6.51129V6.50386V6.49643V6.489V6.48157V6.47414V6.46671V6.45928V6.45185V6.44442V6.43699V6.42956V6.42213V6.4147V6.40726V6.39983V6.3924V6.38497V6.37754V6.37011V6.36268V6.35525V6.34782V6.34039V6.33296V6.32553V6.3181V6.31067V6.30323V6.2958V6.28837V6.28094V6.27351V6.26608V6.25865V6.25122V6.24379V6.23636V6.22893V6.2215V6.21407V6.20664V6.1992V6.19177V6.18434V6.17691V6.16948V6.16205V6.15462V6.14719V6.13976V6.13233V6.1249V6.11747V6.11004V6.10261V6.09517V6.08774V6.08031V6.07288V6.06545V6.05802V6.05059V6.04316V6.03573V6.0283V6.02087V6.01344V6.00601V5.99858V5.99115V5.98371V5.97628V5.96885V5.96142V5.95399V5.94656V5.93913V5.9317V5.92427V5.91684V5.90941V5.90198V5.89455V5.88712V5.87968V5.87225V5.86482V5.85739V5.84996V5.84253V5.8351V5.82767V5.82024V5.81281V5.80538V5.79795V5.79052V5.78308V5.77565V5.76822V5.76079V5.75336V5.74593V5.7385V5.73107V5.72364V5.71621V5.70878V5.70135V5.69392V5.68649V5.67906V5.67162V5.66419V5.65676V5.64933V5.6419V5.63447V5.62704V5.61961V5.61218V5.60475V5.59732V5.58989V5.58246V5.57503V5.56759V5.56016V5.55273V5.5453V5.53787V5.53044V5.52301V5.51558V5.50815V5.50072V5.49329V5.48586V5.47843V5.47099V5.46356V5.45613V5.4487V5.44127V5.43384V5.42641V5.41898V5.41155V5.40412V5.39669V5.38926V5.38183V5.3744V5.36697V5.35953V5.3521V5.34467V5.33724V5.32981V5.32238V5.31495V5.30752V5.30009V5.29266V5.28523V5.2778V5.27037V5.26294V5.2555V5.24807V5.24064V5.23321V5.22578V5.21835V5.21092V5.20349V5.19606V5.18863V5.1812V5.17377V5.16634V5.15891V5.15147V5.14404V5.13661V5.12918V5.12175V5.11432V5.10689V5.09946V5.09203V5.0846V5.07717V5.06974V5.06231V5.05488V5.04744V5.04001V5.03258V5.02515V5.01772V5.01029V5.00286V4.99543V4.988V4.98057V4.97314V4.96571V4.95828V4.95085V4.94341V4.93598V4.92855V4.92112V4.91369V4.90626V4.89883V4.8914V4.88397V4.87654V4.86911V4.86168V4.85425V4.84682V4.83938V4.83195V4.82452V4.81709V4.80966V4.80223V4.7948V4.78737V4.77994V4.77251V4.76508V4.75765V4.75022V4.74279V4.73535V4.72792V4.72049V4.71306V4.70563V4.6982V4.69077V4.68334V4.67591V4.66848V4.66105V4.65362V4.64619V4.63876V4.63132V4.62822V4.62075V4.61328V4.60582V4.59835V4.59088V4.58342V4.57595V4.56848V4.56102V4.55355V4.54608V4.53862V4.53115V4.52368V4.51622V4.50875V4.50129V4.49382V4.48635V4.47889V4.47142V4.46396V4.45649V4.44903V4.44156V4.43409V4.42663V4.41916V4.4117V4.40423V4.39677V4.3893V4.38184V4.37437V4.36691V4.35944V4.35198V4.34451V4.33705V4.32959V4.32212V4.31466V4.30719V4.29973V4.29226V4.2848V4.27734V4.26987V4.26241V4.25494V4.24748V4.24002V4.23255V4.22509V4.21762V4.21016V4.2027V4.19523V4.18777V4.18031V4.17284V4.16538V4.15792V4.15045V4.14299V4.13553V4.12806V4.1206V4.11314V4.10568V4.09821V4.09075V4.08329V4.07582V4.06836V4.0609V4.05344V4.04597V4.03851V4.03105V4.02359V4.01613V4.00866V4.0012V3.99374V3.98628V3.97881V3.97135V3.96389V3.95643V3.94897V3.9415V3.93404V3.92658V3.91912V3.91166V3.9042V3.89674V3.88927V3.88181V3.87435V3.86689V3.85943V3.85197V3.84451V3.83704V3.82958V3.82212V3.81466V3.8072V3.79974V3.79228V3.78482V3.77736V3.7699V3.76243V3.75497V3.74751V3.74005V3.73259V3.72513V3.71767V3.71021V3.70275V3.69529V3.68783V3.68037V3.67291V3.66545V3.65799V3.65053V3.64307V3.63561V3.62815V3.62069V3.61323V3.60577V3.59831V3.59085V3.58339V3.57593V3.56847V3.56101V3.55355V3.54609V3.53863V3.53117V3.52371V3.51625V3.50879V3.50133V3.49387V3.48641V3.47895V3.47149V3.46403V3.45657V3.44911V3.44165V3.4342V3.42674V3.41928V3.41182V3.40436V3.3969V3.38944V3.38198V3.37452V3.36706V3.3596V3.35214V3.34469V3.33723V3.32977V3.32231V3.31485V3.30739V3.29993V3.29247V3.28501V3.27756V3.2701V3.26264V3.25518V3.24772V3.24026V3.2328V3.22534V3.21789V3.21043V3.20297V3.19551V3.18805V3.18059V3.17313V3.16568V3.15822V3.15076V3.1433V3.13584V3.12838V3.12092V3.11347V3.10601V3.09855V3.09109V3.08363V3.07617V3.06872V3.06126V3.0538V3.04634V3.03888V3.03142V3.02397V3.01651V3.00905V3.00159V2.99413V2.98667V2.97922V2.97176V2.9643V2.95684V2.94938V2.94193V2.93447V2.92701V2.91955V2.91209V2.90464V2.89718V2.88972V2.88226V2.8748V2.86734V2.85989V2.85243V2.84497V2.83751V2.83005V2.8226V2.81514V2.80768V2.80022V2.79276V2.78531V2.77785V2.77039V2.76293V2.75547V2.74802V2.74056V2.7331V2.72564V2.71818V2.71073V2.70327V2.69581V2.68835V2.68089V2.67344V2.66598V2.65852V2.65106V2.6436V2.63615V2.62869V2.62123V2.61377V2.60631V2.59886V2.5914V2.58394V2.57648V2.56902V2.56156V2.55411V2.54665V2.53919V2.53173V2.52427V2.51682V2.50936V2.5019V2.49444V2.48698V2.47953V2.47207V2.46461V2.45715V2.44969V2.44223V2.43478V2.42732V2.41986V2.4124V2.40494V2.39748V2.39003V2.38257V2.37511V2.36765V2.36019V2.35273V2.34528V2.33782V2.33036V2.3229V2.31544V2.30798V2.30053V2.29307V2.28561V2.27815V2.27069V2.26323V2.25577V2.24832V2.24086V2.2334V2.22594V2.21848V2.21102V2.20356V2.19611V2.18865V2.18119V2.17373V2.16627V2.15881V2.15135V2.14389V2.13644V2.12898V2.12152V2.11406V2.1066V2.09914V2.09168V2.08422V2.07676V2.0693V2.06185V2.05439V2.04693V2.03947V2.03201V2.02455V2.01709V2.00963V2.00217V1.99471V1.98725V1.97979V1.97233V1.96487V1.95742V1.94996V1.9425V1.93504V1.92758V1.92012V1.91266V1.9052V1.89774V1.89028V1.88282V1.87536V1.8679V1.86044V1.85298V1.84552V1.83806V1.8306V1.82314V1.81568V1.80822V1.80076V1.7933V1.78584V1.77838V1.77092V1.76346V1.756V1.74854V1.74108V1.73362V1.72616V1.7187V1.71124V1.70377V1.69631V1.68885V1.68139V1.67393V1.66647V1.65901V1.65155V1.64409V1.63663V1.62917V1.62171V1.61424V1.60678V1.59932V1.59186V1.5844V1.57694V1.56948V1.56202V1.55455V1.54709V1.53963V1.53217V1.52471V1.51725V1.50979V1.50232V1.49486V1.4874V1.47994V1.47248V1.46501V1.45755V1.45009V1.44263V1.43517V1.4277V1.42024V1.41278V1.40532V1.39786V1.39039V1.38293V1.37547V1.36801V1.36054V1.35308V1.34562V1.33815V1.33069V1.32323V1.31577V1.3083V1.30084V1.29338V1.28591V1.27845V1.27099V1.26352V1.25606V1.2486V1.24113V1.23367V1.22621V1.21874V1.21128V1.20382V1.19635V1.18889V1.18142V1.17396V1.1665V1.15903V1.15157V1.1441V1.13664V1.12918V1.12171V1.11425V1.10678V1.09932V1.09185V1.08439V1.07692V1.06946V1.06199V1.05453V1.04706V1.0396V1.03213V1.02467V1.0172V1.00974V1.00227V0.994808V0.987342V0.979877V0.972411V0.964945V0.957479V0.950014V0.942548V0.935082V0.927616V0.92015V0.912684V0.905217V0.897751V0.890285V0.882818V0.875352V0.867885V0.860419V0.852952V0.845485V0.838019V0.830552V0.823085V0.815618V0.808151C6.5 0.688991 6.46064 0.621519 6.42095 0.583212C6.37972 0.543429 6.30114 0.5 6.16384 0.5C5.57671 0.5 4.98894 0.50069 4.40083 0.50138C3.22363 0.502761 2.04506 0.504144 0.867475 0.500001M3.23169 6.31092C3.07 6.36099 2.94684 6.45207 2.87328 6.51155L2.87327 6.51154L2.87017 6.51409L2.87001 6.51422C2.09505 7.15115 1.31955 7.78852 0.543969 8.42906M0.543969 8.42906C0.531628 8.43919 0.521407 8.44751 0.512815 8.45442M0.543969 8.42906C0.543775 8.42922 0.543582 8.42938 0.543388 8.42954L0.861775 8.81505L0.544523 8.42861C0.544338 8.42876 0.544153 8.42891 0.543969 8.42906ZM0.512815 8.45442V8.45432V8.45406V8.45381V8.45355V8.4533V8.45304V8.45279V8.45253V8.45228V8.45202V8.45177V8.45151V8.45126V8.451V8.45075V8.45049V8.45024V8.44998V8.44973V8.44947V8.44922V8.44896V8.44871V8.44845V8.4482V8.44794V8.44769V8.44743V8.44718V8.44692V8.44667V8.44641V8.44616V8.4459V8.44565V8.44539V8.44514V8.44488V8.44463V8.44437V8.44412V8.44386V8.44361V8.44335V8.4431V8.44284V8.44259V8.44233V8.44208V8.44182V8.44157V8.44131V8.44106V8.4408V8.44055V8.44029V8.44004V8.43978V8.43953V8.43927V8.43902V8.43876V8.43851V8.43825V8.438V8.43774V8.43749V8.43723V8.43698V8.43672V8.43647V8.43621V8.43596V8.4357V8.43545V8.43519V8.43494V8.43468V8.43443V8.43417V8.43392V8.43366V8.43341V8.43315V8.4329V8.43264V8.43239V8.43213V8.43188V8.43162V8.43137V8.43111V8.43086V8.4306V8.43035V8.43009V8.42984V8.42958V8.42933V8.42907V8.42882V8.42856V8.42831V8.42805V8.4278V8.42754V8.42729V8.42703V8.42678L0.512816 8.42653L0.512813 8.42526C0.510073 7.34204 0.509092 6.25827 0.50811 5.17468C0.5068 3.72839 0.50549 2.28243 0.500001 0.838497M0.500001 0.838497C0.500409 0.656551 0.652194 0.500347 0.867475 0.500001M0.487623 8.51404C0.492747 8.51739 0.497196 8.521 0.500962 8.52461L0.494439 8.52505L0.487623 8.51404Z" stroke="#C45656" stroke-opacity="0.4"/>
</svg>
