<svg width="7" height="9" viewBox="0 0 7 9" fill="none" xmlns="http://www.w3.org/2000/svg">
<path d="M7 4.63132C7 5.8995 7 7.16767 7 8.43585C7 8.53221 6.99039 8.63167 6.96156 8.72181C6.88146 8.96426 6.64119 9.06372 6.40412 8.95804C6.32723 8.92385 6.25675 8.87412 6.19268 8.82438C5.41419 8.18408 4.6389 7.54378 3.86362 6.90036C3.71945 6.77914 3.55927 6.73252 3.37986 6.78847C3.30938 6.81022 3.24531 6.85374 3.18764 6.90036C2.41236 7.53756 1.63707 8.17475 0.861785 8.81506C0.820137 8.84925 0.77849 8.88344 0.733638 8.91141C0.397254 9.11967 0.0384439 8.9425 0.0128146 8.55707C0.0128146 8.51356 0.0128146 8.47004 0.0128146 8.42652C0.00640732 5.89328 0.00961098 3.36626 0 0.839233C0 0.34191 0.416476 0 0.868192 0C2.63341 0.00621654 4.39863 0 6.16384 0C6.66041 0 7 0.326369 7 0.808151C7 2.08254 7 3.35383 7 4.62822V4.63132Z" fill="#C45656"/>
</svg>
