<svg width="28" height="30" viewBox="0 0 28 30" fill="none" xmlns="http://www.w3.org/2000/svg">
<path d="M19.5048 29.264V28.8942C19.5048 26.6964 19.5048 24.5056 19.5048 22.3078C19.5048 20.7658 19.1449 19.3634 18.2223 18.1563C17.2736 16.9214 16.0696 16.133 14.5777 15.8888C11.6398 15.4073 8.78691 17.5075 8.12604 20.7449C8.03443 21.2054 8.00171 21.6938 8.00171 22.1682C7.98863 24.4149 8.00171 26.6545 8.00171 28.9012C8.00171 29.0128 8.00171 29.1314 8.00171 29.2431C7.95591 29.264 7.92319 29.2849 7.89048 29.2849C6.32663 29.2849 4.75624 29.3338 3.1924 29.257C1.38645 29.1663 0.0123595 27.5825 0.00581626 25.6638C-0.00727032 21.9659 0.00581626 18.275 0.00581626 14.5771C0.00581626 13.9212 0.202115 13.3421 0.620885 12.8537C2.23053 10.9908 3.83364 9.12789 5.44329 7.27197C7.05948 5.40209 8.67567 3.54616 10.2853 1.6693C12.196 -0.549435 15.2844 -0.556413 17.195 1.64837C20.3489 5.29045 23.5028 8.92555 26.6632 12.5607C27.2324 13.2095 27.5073 13.9352 27.5007 14.8282C27.4811 18.4075 27.5007 21.9868 27.4942 25.5661C27.4942 27.3802 26.3622 28.8523 24.7198 29.2012C24.4908 29.25 24.2552 29.271 24.0262 29.271C22.5932 29.271 21.1603 29.271 19.7273 29.271C19.6684 29.271 19.603 29.264 19.5048 29.25V29.264Z" fill="white" fill-opacity="0.5"/>
<path d="M17.1687 29.2848H10.3179C10.3179 29.1871 10.3179 29.0825 10.3179 28.9848C10.3179 26.6056 10.3179 24.2333 10.3179 21.8541C10.3179 20.0052 11.8228 18.4004 13.5503 18.3097C15.2581 18.219 16.9004 19.4958 17.1621 21.5192C17.1752 21.6029 17.1752 21.6936 17.1752 21.7774C17.1752 24.2124 17.1752 26.6474 17.1752 29.0825C17.1752 29.1383 17.1752 29.1941 17.1687 29.2848Z" fill="white" fill-opacity="0.5"/>
</svg>
