<svg width="133" height="48" viewBox="0 0 133 48" fill="none" xmlns="http://www.w3.org/2000/svg">
<path d="M16.633 21.8797C16.6494 21.7593 16.6725 21.6391 16.6821 21.5186C16.7714 20.0318 16.7864 18.5431 16.9631 17.0718C17.2491 14.6908 17.7368 12.3481 18.7881 10.153C19.2355 9.22462 19.8689 8.42137 20.7455 7.89887C22.2183 7.00821 23.6029 7.26909 24.5349 8.96798C25.2986 10.3611 25.6135 11.8843 25.8469 13.4325C26.167 15.5931 26.2503 17.7749 26.1649 19.9527C26.0328 23.2428 25.6518 26.5001 24.8198 29.6932C24.255 31.873 23.7032 34.0733 22.6361 36.0802C22.2332 36.842 21.7567 37.5752 21.2143 38.2398C20.0322 39.6873 18.4233 39.7699 17.0281 38.5295C15.8644 37.4958 15.133 36.1639 14.4976 34.7738C13.7144 33.0651 13.1694 31.2747 12.7469 29.4471C12.7345 29.3998 12.7086 29.3523 12.6445 29.2099C12.606 29.4102 12.5766 29.5101 12.5675 29.6105C12.4782 31.0974 12.4497 32.5857 12.2865 34.0574C11.979 36.7732 11.4164 39.4293 10.1026 41.8731C9.64336 42.7341 9.07786 43.5189 8.1495 43.9462C7.52828 44.2333 6.90748 44.2186 6.29383 43.9022C5.55323 43.5292 4.98595 42.9658 4.50219 42.297C3.21482 40.4958 2.47991 38.4595 1.9222 36.3536C1.34599 34.1735 1.00033 31.952 0.763262 29.7062C0.449214 26.7208 0.392063 23.7213 0.611575 20.7284C0.902328 16.7244 1.67027 12.8122 3.32417 9.12228C3.84459 7.96087 4.4921 6.84942 5.62878 6.17883C7.40208 5.14103 8.86899 5.35021 10.4079 6.7952C11.4317 7.75178 12.1257 8.9487 12.7446 10.1841C14.382 13.4558 15.4408 16.9216 16.2342 20.4751C16.3378 20.9471 16.4483 21.4125 16.5521 21.8777C16.5791 21.8784 16.6061 21.879 16.633 21.8797Z" fill="#C45656"/>
<path d="M63.2036 14.0165C64.5549 14.8333 65.8485 14.9444 67.0658 14.0075C68.2487 13.0965 68.536 11.8021 68.4358 10.3309C68.6788 10.3367 68.9014 10.3419 69.1174 10.3471C69.6503 10.3664 70.1327 10.237 70.5656 9.91862C71.6448 9.11252 72.2441 8.04018 72.3365 6.70764C72.3656 6.33273 72.5034 6.21527 72.835 6.18289C75.3795 5.93471 77.8951 6.05473 80.3918 6.68404C81.7811 7.03223 83.1568 7.3868 84.4161 8.09408C85.4022 8.64733 86.3808 9.23394 87.0059 10.2079C87.7221 11.3248 88.2539 12.5313 88.6424 13.8015C89.2745 15.9024 89.676 18.0448 89.7998 20.2276C89.8991 22.0207 89.9577 23.8196 89.9016 25.6158C89.8444 27.4589 89.4104 29.2462 88.9359 31.0324C88.5502 32.4922 87.4796 33.2247 86.4345 34.0182C83.8702 35.9561 80.9594 37.1279 77.7575 37.4812C75.6319 37.7125 73.5287 37.5754 71.6106 36.4635C70.0853 35.5822 69.198 34.2801 69.1993 32.5162C69.2017 31.2754 69.7144 30.1541 70.4008 29.1106C71.3885 27.6048 72.6467 26.367 74.0962 25.3148C74.213 25.2304 74.3301 25.1325 74.4403 25.0413C74.4278 25.0007 74.4154 24.9535 74.4029 24.9129C74.2409 24.9091 74.079 24.9052 73.917 24.9014C72.114 24.9123 70.3286 24.7559 68.5847 24.2652C66.2105 23.5985 64.0268 22.5809 62.3074 20.7762C61.8132 20.2614 61.4643 19.6026 61.053 19.0093C60.8636 18.7365 60.9558 18.5509 61.2099 18.3691C61.8279 17.9344 62.4528 17.4931 62.8001 16.7971C63.1401 16.1277 63.3121 15.4209 63.1816 14.6599C63.152 14.4848 63.1902 14.2979 63.1972 14.0029L63.2036 14.0165ZM75.8069 14.1075C74.3966 14.074 73.2566 14.3153 72.5438 14.7612C71.8105 15.22 71.6797 15.8943 72.2866 16.4989C72.7153 16.9249 73.2127 17.3056 73.7392 17.5931C74.8256 18.189 76.0213 18.4454 77.2681 18.542C78.4273 18.6299 79.5441 18.5155 80.627 18.1186C81.2808 17.8793 81.6078 17.1895 81.2505 16.5975C80.9648 16.1145 80.5505 15.6486 80.0783 15.349C78.7415 14.4923 77.2092 14.1944 75.8001 14.1073L75.8069 14.1075ZM81.8525 27.6517C80.8397 27.6545 80.0978 27.9052 79.4006 28.2643C78.4643 28.7451 77.6131 29.3353 77.144 30.3235C76.8672 30.8938 77.0403 31.2802 77.6449 31.4086C78.2829 31.5511 78.929 31.6402 79.5577 31.3198C79.8994 31.1468 80.2737 31.0215 80.5958 30.8212C81.3632 30.3498 82.1118 29.8176 82.4698 28.9541C82.8422 28.0575 82.549 27.6079 81.8594 27.6452L81.8525 27.6517Z" fill="#C45656"/>
<path d="M124.631 41.6178C121.762 41.5967 119.101 40.7757 116.53 39.5678C114.113 38.4373 112.743 36.4195 111.725 34.0881C110.566 31.4247 109.882 28.6384 109.545 25.7665C109.377 24.3473 109.241 22.9288 109.188 21.4989C109.131 19.8879 109.095 18.2639 109.215 16.657C109.473 13.1687 110.034 9.74123 111.574 6.54493C112.086 5.49061 112.709 4.51945 113.613 3.73601C114.398 3.0504 115.284 2.70922 116.344 2.73434C120.413 2.81743 124.021 4.117 127.161 6.69321C128.439 7.73631 129.579 8.91697 130.135 10.5131C130.875 12.6299 129.701 14.3191 127.385 14.5862C126.167 14.7249 125.013 14.3891 123.828 14.2469C122.206 14.0475 120.611 14.117 119.108 14.8527C118.855 14.9741 118.635 15.1701 118.434 15.3665C118.116 15.6809 118.067 16.0554 118.26 16.4624C118.658 17.3236 119.395 17.8576 120.209 18.2458C121.171 18.6978 122.196 19.0173 123.193 19.3897C123.314 19.4328 123.448 19.4494 123.548 19.5188C125.008 20.5863 126.129 22.0147 125.873 23.994C125.675 25.4984 124.334 26.7946 122.825 26.9533C122.209 27.0192 121.652 26.8853 121.083 26.6706C120.481 26.4416 119.846 26.44 119.258 26.7346C118.657 27.0356 118.465 27.7286 118.681 28.6123C119.051 30.09 120.858 31.595 122.255 31.608C123.605 31.6199 124.854 32.1995 126.091 32.7386C127.38 33.299 128.572 34.0248 129.595 34.9948C130.44 35.7996 131.141 36.7015 131.186 37.9501C131.237 39.2056 130.583 40.0419 129.562 40.6481C128.391 41.3447 127.096 41.5823 125.751 41.6376C125.379 41.6556 125.009 41.62 124.638 41.6112L124.631 41.6178Z" fill="#C45656"/>
<path d="M45.874 10.802C46.1078 12.3301 46.9876 13.3838 48.3672 13.8592C49.7737 14.3352 51.075 13.8429 52.2596 12.8583C52.288 13.3687 52.2709 13.8042 52.3351 14.2283C52.3939 14.5986 52.4791 14.9896 52.6606 15.3092C53.6904 17.1512 55.2209 18.3814 57.2942 18.9269C57.5961 19.0078 57.6267 19.1427 57.3438 19.3976C56.599 20.0573 55.8412 20.6967 55.0898 21.3496C54.9865 21.4343 54.8832 21.5191 54.7866 21.604C54.799 21.6512 54.8047 21.6983 54.817 21.7455C55.1072 21.7524 55.3972 21.766 55.6808 21.766C58.0176 21.7342 60.2762 22.1567 62.4502 23.0131C64.1158 23.6697 65.6339 24.5642 66.8725 25.8612C68.0847 27.1308 68.7777 28.6563 68.7899 30.4206C68.7988 32.0372 68.2307 33.4993 67.3146 34.8325C66.1676 36.5089 64.6135 37.6994 62.8164 38.6025C60.6639 39.685 58.3746 40.2746 55.979 40.5062C53.421 40.754 50.9283 40.5272 48.4385 39.8914C47.0827 39.5507 45.797 39.1044 44.5631 38.4648C42.7687 37.5436 41.7316 36.0099 41.0318 34.2025C40.1474 31.9212 39.7175 29.5501 39.4508 27.1292C39.235 25.1253 39.1678 23.1183 39.283 21.1089C39.3881 19.2401 39.762 17.4246 40.2776 15.6125C40.6086 14.4667 41.3012 13.7319 42.1736 13.102C43.2177 12.3487 44.3405 11.6912 45.4372 10.9996C45.5537 10.9285 45.6896 10.8915 45.8804 10.8156L45.874 10.802ZM53.6085 32.5623C54.6491 32.5267 55.7375 32.472 56.6904 31.8641C57.3758 31.431 57.5001 30.7431 56.9261 30.1795C56.4774 29.7396 55.9606 29.3249 55.4071 29.0368C53.8264 28.2146 52.1177 27.9527 50.3516 28.1187C49.7629 28.1719 49.1783 28.3391 48.607 28.5133C47.8859 28.7444 47.5581 29.4677 47.9548 30.1076C48.2409 30.5705 48.6626 31.0097 49.1215 31.3023C50.4652 32.1524 51.984 32.45 53.6021 32.5488L53.6085 32.5623ZM47.5637 18.9846C48.9762 18.9242 50.1848 18.3559 51.2062 17.421C51.565 17.0941 51.852 16.665 52.0916 16.2414C52.3172 15.8376 52.2044 15.4727 51.8221 15.3631C51.3393 15.2242 50.8026 15.0773 50.3346 15.1668C49.0529 15.4047 47.9635 16.0764 47.1363 17.0763C46.8583 17.4118 46.7185 17.8981 46.6135 18.3383C46.5233 18.7251 46.802 18.933 47.1791 18.9754C47.3069 18.9919 47.4355 18.9815 47.5637 18.9846Z" fill="#C45656"/>
<path d="M92.1512 24.4218C92.3295 19.7511 92.6715 15.8623 93.6395 12.0555C93.9446 10.8622 94.3172 9.67042 94.8431 8.5628C95.2128 7.78012 95.8241 7.05683 96.4661 6.46171C97.2533 5.72247 98.2595 5.43109 99.3216 5.91236C100.484 6.44296 101.118 7.33663 101.113 8.65784C101.119 11.2671 100.56 13.7824 99.8055 16.2529C99.4907 17.285 99.0755 18.2812 98.7138 19.2989C98.0697 21.1213 98.1638 22.8473 99.5121 24.3549C99.7488 24.6221 100.075 24.831 100.402 24.9863C101.651 25.5726 102.977 26.0266 104.169 26.7122C105.994 27.7548 107.576 29.0935 108.502 31.0539C109.929 34.0657 108.496 37.2981 105.266 38.2343C102.323 39.0834 99.562 38.4813 96.9569 37.011C95.3779 36.1218 94.0831 34.9173 93.2235 33.3006C92.616 32.1527 92.3411 30.9322 92.318 29.6305C92.2839 27.651 92.1958 25.6703 92.1575 24.442L92.1512 24.4218Z" fill="#C45656"/>
<path d="M30.544 26.0461C30.6743 23.6816 30.8919 21.3392 31.5938 19.0754C31.8203 18.3497 32.0873 17.625 32.4274 16.9489C32.9167 15.9611 34.1152 15.8152 34.9142 16.5719C35.6207 17.246 35.9645 18.1194 36.254 19.0116C36.896 20.9786 37.2191 23.0118 37.3459 25.0672C37.443 26.6658 37.5604 28.2649 37.4956 29.8597C37.4062 32.205 37.2556 34.5691 36.453 36.8104C36.1855 37.5552 35.7635 38.2696 35.2891 38.9156C34.8214 39.5619 34.1532 39.5527 33.5305 39.0483C32.921 38.5577 32.5722 37.8921 32.2781 37.1943C31.4087 35.1347 30.9945 32.9585 30.7971 30.7471C30.6587 29.1811 30.6217 27.6107 30.5374 26.0392L30.544 26.0461Z" fill="#C45656"/>
</svg>
