<svg width="106" height="111" viewBox="0 0 106 111" fill="none" xmlns="http://www.w3.org/2000/svg">
<ellipse cx="52.5991" cy="55.3815" rx="52.5991" ry="55.3815" fill="white"/>
<path d="M49.7633 37.3096C52.2757 38.8524 54.6519 39.0106 56.8425 37.1118C58.9712 35.2658 59.4415 32.7077 59.194 29.8199C59.6395 29.8199 60.048 29.8199 60.444 29.8199C61.4217 29.8331 62.3004 29.5562 63.0801 28.9101C65.0232 27.275 66.0752 25.1389 66.1866 22.5149C66.2237 21.7764 66.4712 21.5391 67.0777 21.46C71.7312 20.8534 76.3475 20.9721 80.9515 22.0929C83.5134 22.7127 86.0505 23.3456 88.3896 24.6774C90.2213 25.7191 92.0406 26.8267 93.2287 28.7123C94.5901 30.8748 95.6173 33.2219 96.3847 35.7009C97.6347 39.8018 98.4639 43.995 98.7857 48.2804C99.0456 51.8011 99.2312 55.335 99.2065 58.8688C99.1817 62.495 98.4639 66.0289 97.6718 69.5627C97.0282 72.4505 95.0975 73.9405 93.2164 75.5492C88.6 79.4786 83.3153 81.9181 77.4614 82.762C73.5752 83.3158 69.7138 83.1444 66.1495 81.0478C63.3153 79.3863 61.6321 76.8678 61.5579 73.3999C61.5084 70.9604 62.3995 68.732 63.6123 66.6486C65.3574 63.6422 67.6099 61.15 70.2213 59.0139C70.4317 58.8425 70.642 58.6447 70.8401 58.4601C70.8153 58.3809 70.7906 58.2886 70.7658 58.2095C70.4688 58.2095 70.1717 58.2095 69.8747 58.2095C66.5703 58.315 63.2905 58.0909 60.0727 57.2074C55.6915 56.0075 51.6445 54.1087 48.4143 50.6407C47.486 49.6518 46.8177 48.3727 46.038 47.2255C45.6791 46.6981 45.84 46.3289 46.2979 45.9597C47.4118 45.0762 48.538 44.1796 49.1445 42.795C49.7385 41.4632 50.0232 40.0655 49.7509 38.5755C49.689 38.2326 49.7509 37.8634 49.7509 37.2833L49.7633 37.3096ZM72.8698 36.9009C70.2831 36.9009 68.2039 37.4283 66.9168 38.3381C65.5925 39.2743 65.3821 40.6061 66.5207 41.7665C67.3252 42.584 68.2534 43.3093 69.2311 43.8499C71.2485 44.9707 73.4515 45.4191 75.7411 45.5509C77.8698 45.6696 79.9119 45.3927 81.8797 44.562C83.0678 44.0609 83.6371 42.6895 82.9564 41.5423C82.4119 40.6061 81.6322 39.7095 80.7535 39.1425C78.2658 37.5206 75.444 37.0063 72.8574 36.9009H72.8698ZM84.5406 63.2466C82.6842 63.2993 81.3351 63.8268 80.0728 64.5652C78.3772 65.5542 76.8426 66.7541 76.0257 68.7188C75.543 69.8528 75.8772 70.6044 76.9911 70.8286C78.1668 71.0791 79.3549 71.2242 80.4936 70.5649C81.1124 70.2088 81.7931 69.9451 82.3747 69.5364C83.7609 68.5738 85.1099 67.4925 85.7287 65.7783C86.3723 63.9982 85.8153 63.1279 84.553 63.2334L84.5406 63.2466Z" fill="#C45656"/>
<path d="M17.8569 31.7979C18.352 34.7911 20.0104 36.8217 22.5599 37.692C25.1589 38.5623 27.5228 37.5338 29.6515 35.5427C29.7258 36.5448 29.7134 37.4019 29.8496 38.2326C29.9733 38.9579 30.1466 39.7227 30.4931 40.3424C32.4609 43.9158 35.3199 46.263 39.1441 47.2387C39.7011 47.3838 39.7629 47.6475 39.2555 48.1618C37.9189 49.4935 36.5575 50.7858 35.2085 52.1044C35.0228 52.2758 34.8372 52.4472 34.6639 52.6186C34.6887 52.7109 34.701 52.8032 34.7258 52.8955C35.258 52.8955 35.7902 52.9087 36.31 52.8955C40.5921 52.7241 44.7506 53.4494 48.7729 55.0317C51.8545 56.2448 54.6763 57.9326 57.0031 60.4248C59.2803 62.8642 60.6169 65.8311 60.716 69.299C60.8026 72.4769 59.8249 75.3778 58.2036 78.0414C56.1739 81.3906 53.3768 83.8037 50.1219 85.6629C46.2234 87.8914 42.0525 89.1572 37.6714 89.7242C32.9931 90.3308 28.4139 90.0011 23.8223 88.8671C21.3223 88.2606 18.9461 87.443 16.6565 86.2431C13.3272 84.5157 11.3594 81.5489 9.99802 78.0282C8.27772 73.5845 7.38663 68.943 6.79257 64.196C6.30989 60.2534 6.0995 56.3107 6.22326 52.3549C6.33464 48.676 6.94108 45.0894 7.80742 41.5028C8.36435 39.2348 9.60198 37.758 11.1738 36.4789C13.055 34.9493 15.0847 33.6043 17.0649 32.1934C17.2753 32.0484 17.5228 31.9693 17.8693 31.811L17.8569 31.7979ZM32.9807 74.2174C34.8867 74.0987 36.8793 73.9405 38.5996 72.701C39.8372 71.8175 40.0352 70.4594 38.9585 69.3781C38.1169 68.5342 37.1515 67.7431 36.1243 67.2024C33.1911 65.6597 30.0476 65.2245 26.8174 65.6333C25.7406 65.7651 24.6763 66.1212 23.6367 66.4904C22.3248 66.9783 21.7555 68.4155 22.5104 69.655C23.055 70.5517 23.8471 71.3956 24.701 71.9494C27.201 73.5581 29.9981 74.0724 32.9684 74.191L32.9807 74.2174ZM21.3099 47.8057C23.8966 47.6211 26.0872 46.4476 27.9189 44.562C28.5624 43.9027 29.0698 43.0456 29.4906 42.2017C29.8867 41.3973 29.6639 40.6853 28.9585 40.4875C28.0674 40.2369 27.0773 39.9732 26.2233 40.171C23.8842 40.6984 21.9164 42.0698 20.4436 44.0741C19.9485 44.7466 19.7134 45.7091 19.5401 46.5794C19.3916 47.3442 19.9114 47.7398 20.6045 47.8057C20.8396 47.8321 21.0748 47.8057 21.3099 47.8057Z" fill="#C45656"/>
</svg>
