<svg width="166" height="166" viewBox="0 0 166 166" fill="none" xmlns="http://www.w3.org/2000/svg">
<path d="M82.9637 2.64643e-05C128.57 -0.0363133 166 37.3573 166 82.9637C166 128.643 128.715 165.964 83.0363 165.964C37.3573 166 0 128.715 0 83.0364C0 37.3573 37.2482 0.0363662 82.9637 2.64643e-05ZM76.0591 101.243C76.0591 104.549 75.9501 107.856 76.1318 111.127C76.2045 112.399 76.7132 113.78 77.4764 114.834C79.257 117.341 82.2732 118.213 85.1077 117.341C87.9785 116.433 89.9046 113.889 89.9409 110.764C89.9772 104.44 90.0136 98.1174 89.9409 91.7942C89.9409 90.2316 90.4133 89.9046 91.8669 89.9409C98.0447 90.0136 104.186 89.9409 110.364 89.9773C112.544 89.9773 114.434 89.3958 115.851 87.6879C117.741 85.4711 118.322 83 117.123 80.3109C115.924 77.6217 113.852 76.0591 110.8 76.0591C104.477 76.0591 98.1537 75.9865 91.8306 76.0591C90.268 76.0591 89.9409 75.5867 89.9772 74.1331C90.0499 67.9554 89.9772 61.8139 90.0136 55.6362C90.0136 53.4558 89.4321 51.5661 87.7242 50.1489C85.5074 48.2592 83.0363 47.6414 80.3472 48.877C77.6581 50.0762 76.0955 52.1476 76.0955 55.2001C76.0955 61.5232 76.0228 67.8463 76.0955 74.1695C76.0955 75.7321 75.623 76.0591 74.1694 76.0228C67.6646 75.9501 61.1961 75.9501 54.6913 76.0591C50.7303 76.1318 47.6778 80.2019 48.4409 84.0902C49.1313 87.5788 51.7115 89.8319 55.2364 89.8682C61.5595 89.9409 67.8827 89.9409 74.2058 89.8682C75.7684 89.8682 76.1318 90.3407 76.0591 91.7942C75.9501 94.9195 76.0591 98.081 76.0591 101.206V101.243Z" fill="#C45656" fill-opacity="0.5"/>
</svg>
