<svg width="7" height="6" viewBox="0 0 7 6" fill="none" xmlns="http://www.w3.org/2000/svg">
<path d="M3.50509 1.31191H3.75231L3.9024 1.11547C4.0297 0.948855 4.16284 0.820361 4.31683 0.720553L4.31732 0.720239C4.59904 0.537189 4.9023 0.471661 5.25229 0.518155L5.25272 0.518212C5.87013 0.59968 6.32768 1.05739 6.45717 1.64613L6.4572 1.64627C6.56441 2.13306 6.46954 2.57667 6.17803 3.01387L6.17787 3.0141C5.92367 3.3958 5.58731 3.72727 5.20018 4.05581L5.1992 4.05665C4.74993 4.43992 4.29449 4.81717 3.83643 5.1966C3.72514 5.28878 3.6137 5.38109 3.50216 5.47364C3.41401 5.40003 3.32592 5.32651 3.2379 5.25306C2.68809 4.79423 2.14112 4.33778 1.60153 3.87393L1.60086 3.87335C1.30544 3.62032 1.04835 3.34283 0.840175 3.03368L0.839468 3.03264C0.484886 2.50894 0.405886 1.98958 0.613132 1.43011L0.613198 1.42993C0.774571 0.993792 1.06565 0.704656 1.51398 0.572303L1.51413 0.572259C1.81509 0.483309 2.07216 0.481094 2.29626 0.540476C2.52074 0.59996 2.74297 0.729462 2.96098 0.951114C2.99573 0.986721 3.02478 1.02086 3.06653 1.06994C3.08354 1.08992 3.10265 1.11239 3.12511 1.13844L3.2747 1.31191H3.50377H3.50509Z" stroke="#C45656" stroke-opacity="0.5"/>
</svg>
