<svg width="7" height="6" viewBox="0 0 7 6" fill="none" xmlns="http://www.w3.org/2000/svg">
<path d="M3.50509 0.811912C3.66027 0.608813 3.83401 0.437648 4.04489 0.300971C4.43217 0.0493329 4.85658 -0.0388043 5.31813 0.0225086C6.16033 0.133638 6.7744 0.760818 6.9455 1.53872C7.08476 2.17101 6.95345 2.75221 6.59403 3.29125C6.30224 3.72938 5.92558 4.09598 5.52371 4.43704C4.95473 4.92243 4.37514 5.39888 3.79953 5.87661C3.60854 6.035 3.40297 6.04267 3.21994 5.88938C2.57006 5.34651 1.91752 4.80491 1.27559 4.2531C0.951979 3.97591 0.662848 3.66551 0.425441 3.31297C-0.00958248 2.67046 -0.12497 1.98324 0.144267 1.25643C0.356474 0.682899 0.76232 0.272869 1.37241 0.0927629C2.12442 -0.129496 2.77696 0.0506103 3.31809 0.601149C3.38175 0.666294 3.43878 0.736548 3.50377 0.811912H3.50509Z" fill="#C45656"/>
</svg>
