<svg width="39" height="39" viewBox="0 0 39 39" fill="none" xmlns="http://www.w3.org/2000/svg">
<path d="M33.5218 25.9982C33.3953 25.8459 33.2712 25.6935 33.1493 25.5465C31.4735 23.5196 30.4597 22.2963 30.4597 16.5582C30.4597 13.5875 29.749 11.15 28.3482 9.32191C27.3153 7.97139 25.9191 6.94688 24.0788 6.18973C24.0551 6.17655 24.0339 6.15927 24.0163 6.13869C23.3544 3.92209 21.543 2.4375 19.5001 2.4375C17.4571 2.4375 15.6465 3.92209 14.9846 6.13641C14.967 6.15626 14.9461 6.173 14.9229 6.18592C10.6283 7.95387 8.54123 11.3458 8.54123 16.556C8.54123 22.2963 7.5289 23.5196 5.8516 25.5442C5.72972 25.6912 5.60556 25.8405 5.47912 25.9959C5.15249 26.3898 4.94555 26.8691 4.88278 27.3769C4.82001 27.8848 4.90403 28.3999 5.12492 28.8615C5.5949 29.8518 6.59656 30.4665 7.7399 30.4665H31.2686C32.4066 30.4665 33.4014 29.8525 33.8729 28.8669C34.0948 28.4052 34.1796 27.8896 34.1174 27.3811C34.0551 26.8727 33.8484 26.3928 33.5218 25.9982ZM19.5001 36.5625C20.6008 36.5616 21.6807 36.2628 22.6254 35.6978C23.57 35.1328 24.3441 34.3227 24.8656 33.3534C24.8902 33.3069 24.9023 33.2549 24.9008 33.2024C24.8994 33.1498 24.8843 33.0986 24.8572 33.0536C24.8301 33.0086 24.7917 32.9714 24.746 32.9456C24.7002 32.9197 24.6485 32.9062 24.596 32.9062H14.4057C14.3531 32.9061 14.3013 32.9195 14.2554 32.9453C14.2096 32.971 14.1711 33.0082 14.1439 33.0533C14.1167 33.0983 14.1016 33.1496 14.1001 33.2022C14.0986 33.2548 14.1107 33.3069 14.1353 33.3534C14.6567 34.3226 15.4307 35.1327 16.3752 35.6976C17.3197 36.2626 18.3995 36.5615 19.5001 36.5625Z" fill="white" fill-opacity="0.5"/>
</svg>
