<svg width="28" height="35" viewBox="0 0 28 35" fill="none" xmlns="http://www.w3.org/2000/svg">
<path d="M28 18.0107C28 22.9425 28 27.8743 28 32.8061C28 33.1808 27.9616 33.5676 27.8462 33.9182C27.5259 34.861 26.5648 35.2478 25.6165 34.8368C25.3089 34.7039 25.027 34.5104 24.7707 34.317C21.6567 31.827 18.5556 29.3369 15.4545 26.8347C14.8778 26.3633 14.2371 26.182 13.5195 26.3996C13.2375 26.4842 12.9812 26.6534 12.7506 26.8347C9.64943 29.3127 6.54828 31.7907 3.44714 34.2808C3.28055 34.4137 3.11396 34.5467 2.93455 34.6555C1.58902 35.4654 0.153776 34.7764 0.0512586 33.2775C0.0512586 33.1083 0.0512586 32.939 0.0512586 32.7698C0.0256293 22.9183 0.0384439 13.091 0 3.26369C0 1.32965 1.6659 0 3.47277 0C10.5336 0.0241754 17.5945 0 24.6554 0C26.6416 0 28 1.26921 28 3.14281C28 8.09877 28 13.0427 28 17.9986V18.0107Z" fill="white" fill-opacity="0.5"/>
</svg>
